<svg xmlns="http://www.w3.org/2000/svg" width="20.999" height="21.041" viewBox="0 0 20.999 21.041">
  <path id="adress" d="M4.922,8.408a3.49,3.49,0,0,0,3.486,3.486.82.82,0,1,1,0,1.641,5.127,5.127,0,1,1,5.127-5.127.82.82,0,1,1-1.641,0,3.486,3.486,0,1,0-6.972,0Zm.645,7.255c-2.1-2.305-3.923-4.3-3.926-7.263a6.767,6.767,0,0,1,13.535,0A.82.82,0,0,0,16,9.22h0a.82.82,0,0,0,.819-.821A8.408,8.408,0,0,0,2.466,2.46,8.355,8.355,0,0,0,0,8.4a8.785,8.785,0,0,0,1.388,4.689A24.962,24.962,0,0,0,4.355,16.77a28,28,0,0,1,3.114,3.848.82.82,0,1,0,1.387-.877,29.269,29.269,0,0,0-3.289-4.078Zm15.218.394a.82.82,0,0,1-1.159.052l-.1-.094V18.73a2.313,2.313,0,0,1-2.309,2.311H12.6a2.313,2.313,0,0,1-2.309-2.311V16.053l-.062.056A.82.82,0,1,1,9.126,14.9l4.234-3.871a2.314,2.314,0,0,1,3.139,0l2.713,2.48a.821.821,0,0,1,.085.077L20.733,14.9a.82.82,0,0,1,.052,1.159Zm-2.9-1.542-2.491-2.277a.682.682,0,0,0-.925,0l-2.532,2.314V18.73a.67.67,0,0,0,.669.671h4.61a.67.67,0,0,0,.669-.671Zm0,0" transform="translate(0 0)" fill="#fff"/>
</svg>
